<svg width="171" height="32" viewBox="0 0 171 32" fill="none" xmlns="http://www.w3.org/2000/svg">
<path d="M170.703 7.95508H158.486C158.375 7.95508 158.285 8.045 158.285 8.15591V15.5392M158.285 15.5392H170.19M158.285 15.5392V24.1248C158.285 24.2357 158.375 24.3256 158.486 24.3256H170.703" stroke="#001021" stroke-width="4.4184"/>
<path d="M138.18 5.91235V24.0243C138.18 24.1352 138.27 24.2251 138.381 24.2251H147.826" stroke="#001021" stroke-width="4.4184"/>
<path d="M114.237 19.5516C114.681 20.3554 115.178 21.0536 115.728 21.6459C116.299 22.2382 116.913 22.693 117.569 23.0104C118.246 23.3277 118.954 23.4863 119.695 23.4863C120.478 23.4863 121.123 23.296 121.63 22.9152C122.138 22.5132 122.392 21.9738 122.392 21.2968C122.392 20.7257 122.244 20.2708 121.948 19.9323C121.652 19.5727 121.176 19.2342 120.52 18.9169C119.864 18.5996 118.997 18.24 117.918 17.838C117.389 17.6476 116.775 17.3832 116.077 17.0447C115.4 16.7063 114.755 16.2726 114.142 15.7437C113.528 15.1937 113.02 14.5379 112.619 13.7763C112.217 12.9936 112.016 12.0522 112.016 10.9522C112.016 9.64057 112.354 8.50879 113.031 7.55682C113.729 6.60486 114.66 5.8856 115.823 5.39904C117.008 4.89133 118.32 4.63747 119.758 4.63747C121.239 4.63747 122.519 4.88075 123.598 5.36731C124.698 5.85387 125.608 6.46735 126.327 7.20777C127.046 7.94819 127.596 8.69918 127.977 9.46075L123.883 11.7455C123.566 11.2166 123.196 10.7618 122.773 10.381C122.371 9.97904 121.916 9.6723 121.408 9.46075C120.922 9.22805 120.393 9.1117 119.822 9.1117C119.06 9.1117 118.478 9.28093 118.076 9.61941C117.675 9.93673 117.474 10.3387 117.474 10.8252C117.474 11.3329 117.664 11.7772 118.045 12.158C118.447 12.5388 119.007 12.8878 119.727 13.2051C120.467 13.5225 121.355 13.8609 122.392 14.2206C123.175 14.5167 123.905 14.8658 124.582 15.2677C125.258 15.6485 125.851 16.1139 126.359 16.6639C126.887 17.214 127.3 17.8486 127.596 18.5679C127.892 19.2871 128.04 20.1122 128.04 21.043C128.04 22.1642 127.808 23.169 127.342 24.0575C126.898 24.9249 126.284 25.6547 125.502 26.247C124.74 26.8394 123.862 27.2836 122.868 27.5798C121.895 27.8971 120.89 28.0558 119.853 28.0558C118.415 28.0558 117.072 27.8019 115.823 27.2942C114.596 26.7653 113.528 26.0566 112.619 25.1681C111.709 24.2797 111 23.3065 110.492 22.2488L114.237 19.5516Z" fill="#001021"/>
<path d="M101.035 5.91235V26.2599" stroke="#001021" stroke-width="4.4184"/>
<path d="M73.1172 26.0829V8.15591C73.1172 8.045 73.2071 7.95508 73.318 7.95508H87.6943C87.8053 7.95508 87.8952 8.045 87.8952 8.15591V26.0829" stroke="#001021" stroke-width="4.4184"/>
<path d="M62.7535 7.95508H50.5368C50.4259 7.95508 50.3359 8.045 50.3359 8.15591V15.5392M50.3359 15.5392H62.2404M50.3359 15.5392V24.1248C50.3359 24.2357 50.4259 24.3256 50.5368 24.3256H62.7535" stroke="#001021" stroke-width="4.4184"/>
<path d="M26.0679 15.5767C25.7668 9.74325 24.2699 6.47608 23.5591 5.57167L18.9805 2.80192C21.7611 1.5772 28.4638 0.891354 33.0298 7.94574C37.5959 15.0001 34.9323 21.6249 33.0298 24.0555L31.7127 25.1295L28.2631 26.5992H23.3082C24.2699 25.3556 26.3689 21.4101 26.0679 15.5767Z" fill="url(#paint0_linear_4195_104110)"/>
<path d="M17.2217 7.8353C24.5474 4.85075 30.8111 6.59174 33.0272 7.8353C32.0865 5.97003 26.6297 -0.530552 16.5945 0.0347033C8.56626 0.486908 3.64899 5.51786 2.33187 8.00499L1.72979 11.0572C1.47891 14.6371 1.72979 20.7457 4.74037 16.5402C7.75094 12.3347 14.3157 8.98463 17.2217 7.8353Z" fill="url(#paint1_linear_4195_104110)"/>
<path d="M14.4634 22.9801C3.82605 17.825 1.96116 10.8083 2.35839 7.94434C-1.10381 13.1899 -0.00405634 18.7972 0.978597 20.9452C3.18635 28.3614 11.2647 31.3082 15.0279 31.8546C25.5148 32.9851 31.3979 27.1253 33.0287 24.0541C26.9072 27.717 18.1012 24.8643 14.4634 22.9801Z" fill="url(#paint2_linear_4195_104110)"/>
<defs>
<linearGradient id="paint0_linear_4195_104110" x1="27.2596" y1="5.4586" x2="27.2646" y2="26.5992" gradientUnits="userSpaceOnUse">
<stop stop-color="#0045C0"/>
<stop offset="1" stop-color="#7ACDF5"/>
</linearGradient>
<linearGradient id="paint1_linear_4195_104110" x1="7.1237" y1="12.414" x2="17.0785" y2="0.134098" gradientUnits="userSpaceOnUse">
<stop offset="0.0001" stop-color="#0045C0"/>
<stop offset="1" stop-color="#85D8FF"/>
</linearGradient>
<linearGradient id="paint2_linear_4195_104110" x1="4.11455" y1="20.6061" x2="18.6867" y2="31.4504" gradientUnits="userSpaceOnUse">
<stop stop-color="#85D8FF"/>
<stop offset="1" stop-color="#0045C0"/>
</linearGradient>
</defs>
</svg>
