<svg width="50" height="51" viewBox="0 0 50 51" fill="none" xmlns="http://www.w3.org/2000/svg">
<path d="M22.5 39.5C22.8333 43.3333 25.4 50.8 33 50C34.9111 50 39.0527 48.8329 41.9246 44.4399C42.7241 43.2169 43 41.7427 43 40.2815V18" stroke="#222F35"/>
<path d="M43 0.5C46.5145 0.5 49.3073 3.45283 49.1123 6.96191L48.834 11.9814C48.662 15.0775 46.1009 17.5 43 17.5C39.8991 17.5 37.338 15.0775 37.166 11.9814L36.8877 6.96191C36.6927 3.45283 39.4855 0.5 43 0.5Z" fill="#778F9B" stroke="#222F35"/>
<path d="M0.5 37.5019V7.00189C14.1 2.20189 24.8333 5.00189 28.5 7.00189V37.5019C20.6845 39.6579 12.7329 39.5139 7 38.7827C4.22393 38.4287 1.96814 37.9369 0.5 37.5019Z" fill="#778F9B"/>
<path d="M0.5 7.00189V37.5019C1.96814 37.9369 4.22393 38.4287 7 38.7827M0.5 7.00189C14.1 2.20189 24.8333 5.00189 28.5 7.00189M0.5 7.00189C1.96814 7.6546 4.22393 8.39249 7 8.92377M28.5 7.00189V37.5019C20.6845 39.6579 12.7329 39.5139 7 38.7827M28.5 7.00189C20.6845 10.2369 12.7329 10.0209 7 8.92377M7 38.7827V8.92377" stroke="#222F35"/>
<circle cx="25" cy="23" r="10.5" fill="#FBF8F9" stroke="#222F35"/>
<path d="M25 16V24" stroke="#CC2833"/>
<circle cx="25" cy="23" r="2" fill="#CC2833"/>
</svg>
