<svg width="53" height="53" viewBox="0 0 53 53" fill="none" xmlns="http://www.w3.org/2000/svg">
<path d="M10.8923 11.1133H15.4033H37.4232H41.8824C44.6438 11.1133 46.8824 13.3519 46.8824 16.1133V24.9662L44.0655 47.7177C43.7554 50.2224 41.6273 52.1033 39.1034 52.1033H13.8014C11.2883 52.1033 9.16563 50.2379 8.84281 47.7456L5.89233 24.9662V16.1133C5.89233 13.3519 8.13091 11.1133 10.8923 11.1133Z" fill="#D9FFEA" stroke="#00D261"/>
<path d="M0.7229 35.6676V27.2422L1.54994 27.3973C15.1271 27.3456 43.212 27.2732 46.9336 27.3973C50.6553 27.5213 51.758 29.7233 51.8442 30.8088V37.942C51.0171 36.3293 48.536 35.7538 47.3988 35.6676H0.7229Z" fill="#F7FFFA"/>
<rect x="47.812" y="26.9785" width="1.65408" height="3.72167" fill="#00D261"/>
<rect x="3.35767" y="26.9775" width="1.65408" height="2.89463" fill="#00D261"/>
<rect x="6.76904" y="26.9775" width="1.65408" height="2.89463" fill="#00D261"/>
<rect x="10.1802" y="26.9775" width="1.65408" height="2.89463" fill="#00D261"/>
<rect x="13.5916" y="26.9775" width="1.65408" height="2.89463" fill="#00D261"/>
<rect x="17.0029" y="26.9775" width="1.65408" height="2.89463" fill="#00D261"/>
<rect x="20.4143" y="26.9775" width="1.65408" height="2.89463" fill="#00D261"/>
<rect x="23.8254" y="26.9775" width="1.65408" height="2.89463" fill="#00D261"/>
<rect x="27.2368" y="26.9775" width="1.65408" height="2.89463" fill="#00D261"/>
<rect x="30.6501" y="26.9775" width="1.65408" height="2.89463" fill="#00D261"/>
<rect x="34.0615" y="26.9775" width="1.65408" height="2.89463" fill="#00D261"/>
<rect x="37.4727" y="26.9775" width="1.65408" height="2.89463" fill="#00D261"/>
<rect x="40.884" y="26.9775" width="1.65408" height="2.89463" fill="#00D261"/>
<rect x="44.2974" y="26.9775" width="1.65408" height="2.89463" fill="#00D261"/>
<path d="M0.826416 27.2939V35.8228H47.7091C50.0786 35.8228 51.9994 37.7436 51.9994 40.113C51.9994 42.4825 50.0786 44.4033 47.7091 44.4033H44.4527" stroke="#00D261"/>
<path d="M0 27.2939H48C50.2091 27.2939 52 29.0848 52 31.2939V40.6299" stroke="#00D261"/>
<circle cx="26.4139" cy="11.992" r="11.492" fill="#D9FFEA" stroke="#00D261"/>
<circle cx="26.4131" cy="11.9868" r="2.08449" stroke="#00D261"/>
<path d="M26.4126 3.4082V10.4082" stroke="#00D261"/>
</svg>
