<svg width="44" height="52" viewBox="0 0 44 52" fill="none" xmlns="http://www.w3.org/2000/svg">
<path d="M12.3483 50.9149C12.4973 50.0582 13.3541 47.3277 15.5891 43.26C15.9057 42.7758 16.606 41.405 16.8742 39.7957C17.1424 38.1865 17.0977 35.1767 17.0419 33.873C17.0791 33.426 16.8296 32.2973 15.5333 31.3586C14.237 30.4199 13.6521 30.0362 13.5218 29.9617L10.728 28.1178C10.0389 27.7081 8.82824 26.3298 9.49874 24.0948L10.281 22.8097C10.3927 22.6607 10.5492 22.2621 10.281 21.8598C9.94575 21.3569 10.0016 20.2953 11.3985 20.2953C10.8211 19.8483 9.99045 18.7866 11.2868 18.1161C12.5831 17.4456 12.2739 16.7565 11.9573 16.4957L10.9515 15.2665C10.6721 14.9126 10.4374 14.0261 11.7338 13.3109C13.0301 12.5957 14.4344 11.5973 14.9745 11.1876C15.198 10.9641 15.6897 10.3383 15.8685 9.62309C16.092 8.72908 18.1594 3.75618 22.7412 1.63292C26.4066 -0.0656894 30.2285 0.515414 31.6812 1.01829C33.2457 1.40937 37.0453 2.88439 39.7273 5.65581C42.4093 8.42722 43.2288 11.6903 43.3033 12.9755C43.5268 14.3165 43.6721 17.7584 42.4652 20.798C41.2583 23.8376 39.2803 25.9758 38.4422 26.6649C37.511 27.3913 35.4808 28.9782 34.8103 29.5146C33.9722 30.1851 32.2401 32.0848 32.0165 35.6608C31.8377 38.5217 32.9851 40.4661 33.5811 41.0807C34.3633 41.8816 36.1625 43.8298 37.1012 45.2155C38.2746 46.9476 38.8333 47.8417 40.0626 50.9707" stroke="#2271FF"/>
<path d="M30.3923 19.5H27.3923H26.8923L25.8923 17L24.8923 15L23.8923 13L23.3923 9.5L23.8923 7L25.3923 5L27.3923 4L29.3923 4.5L30.3923 5.5L31.3923 6.5L32.3923 8.5H34.3923L36.3923 7.5L38.3923 8.5L39.3923 10.5L40.3923 12.5L39.3923 14.5L38.3923 15.5L37.3923 16.5L35.3923 17.5L33.3923 18.5L30.3923 19.5Z" fill="#AECBFF"/>
<path d="M19.0546 50.9699C18.142 49.1632 17.166 44.1196 20.5632 38.3979C20.9544 37.6716 22.3624 35.3583 24.8656 31.9164C27.3688 28.4745 27.6966 25.23 27.5476 24.038C27.5477 22.995 27.3354 20.3614 26.4861 18.1711C25.9087 16.9977 24.631 14.3716 24.1393 13.254C23.5247 11.8572 22.4631 6.60489 26.0391 4.5375C27.0262 3.99737 29.481 3.58762 31.4031 6.26964C31.6453 6.82836 32.2524 8.03522 32.7441 8.39282C33.2358 8.75042 34.5508 8.31832 35.1468 8.05757C36.3574 7.79682 38.991 8.0017 39.8403 10.9072C40.6896 13.8127 37.8102 16.3644 36.2643 17.277C35.2771 17.9847 32.2412 19.445 27.9947 19.6238C27.1007 19.6238 24.8433 19.2215 22.9659 17.6122C21.0885 16.003 19.5389 14.9302 18.9988 14.595C17.8626 13.7941 14.9646 12.7176 12.4613 14.8185" stroke="#2271FF"/>
<path d="M9.10913 16.9399C7.4515 17.7966 3.3875 18.5603 0.392585 14.7607" stroke="#2271FF"/>
<path d="M9.27515 15.5427C6.23926 15.9897 0.502725 15.0286 1.84373 7.6084" stroke="#2271FF"/>
<path d="M5.47716 10.7373C5.42128 11.6499 6.12531 13.6652 9.38843 14.4251" stroke="#2271FF"/>
</svg>
