<svg width="59" height="49" viewBox="0 0 59 49" fill="none" xmlns="http://www.w3.org/2000/svg">
<path d="M3 21.3477L2 14.8477V12.8477L3.5 8.84766L5.5 5.84766L7.5 3.34766L10.5 1.84766L14 0.847656H18.5L21.5 1.34766L25 2.84766L28 4.34766L30.5 2.84766L33 1.84766L35.5 0.847656L39.5 0.347656L42.5 0.847656L45.5 1.84766L48 3.34766L50.5 5.84766L52.5 8.34766L53.5 11.3477L54.5 15.8477L55 19.8477L54.5 23.3477H43.5L40 17.3477L35.5 25.8477L31 13.8477L25.5 35.8477L19.5 21.3477L15.5 29.8477H7L5.5 27.3477L3 21.3477Z" fill="#FFD3D9"/>
<path d="M48 32.847C46.1667 35.5136 39.8 41.547 29 48.347C20 44.1803 2 31.547 2 14.347C3.16667 6.84696 9.2 -5.65304 28 4.34696C31.6667 1.68065 40.8 -2.25197 48 3.34803C55.2 8.94803 55.3333 18.6811 54.5 22.8477" stroke="#FF697F"/>
<path d="M0 29.8477H15.5L19.5 21.3477L25.5 36.3477L31 13.8477L35.5 26.3477L40 17.3477L43 23.3477H58.5" stroke="#FF697F"/>
</svg>
