<svg width="45" height="52" viewBox="0 0 45 52" fill="none" xmlns="http://www.w3.org/2000/svg">
<path d="M28.3599 28.1605L31.6011 30.1863L33.2217 50.6466H39.5016L41.5274 30.1863L44.5661 28.1605L43.148 16.6136C42.6619 14.6688 41.4599 14.1826 40.9197 14.1826H33.0192C31.0744 14.3447 30.3181 15.8708 30.1831 16.6136L28.3599 28.1605Z" fill="#00E45E"/>
<rect x="32.8184" y="4.05371" width="7.2931" height="9.72414" rx="3.64655" fill="#00E45E"/>
<rect x="14.5864" y="49.0273" width="13.7759" height="2.02586" rx="1.01293" fill="#00E45E"/>
<path d="M18.2336 42.5415L21.475 48.2139L24.7164 42.5415H18.2336Z" fill="#00E45E"/>
<rect x="22.4866" y="13.373" width="27.9557" height="2.02578" transform="rotate(90 22.4866 13.373)" fill="#00E45E"/>
<path d="M18.2336 12.1578L21.475 6.48535L24.7164 12.1578H18.2336Z" fill="#00E45E"/>
<rect x="14.5864" y="4.05371" width="13.7759" height="2.02586" rx="1.01293" fill="#00E45E"/>
<rect x="0.5" y="0.5" width="10.7495" height="49.6444" stroke="#00E45E"/>
<path d="M7.69971 7.09301C7.69971 6.53358 8.15321 6.08008 8.71264 6.08008H11.7514V8.10594H8.71264C8.15321 8.10594 7.69971 7.65244 7.69971 7.09301Z" fill="#00E45E"/>
<path d="M7.69971 11.6711C7.69971 11.1117 8.15321 10.6582 8.71264 10.6582H11.7514V12.6841H8.71264C8.15321 12.6841 7.69971 12.2306 7.69971 11.6711Z" fill="#00E45E"/>
<path d="M7.69971 16.2483C7.69971 15.6889 8.15321 15.2354 8.71264 15.2354H11.7514V17.2612H8.71264C8.15321 17.2612 7.69971 16.8077 7.69971 16.2483Z" fill="#00E45E"/>
<path d="M7.69971 20.8264C7.69971 20.267 8.15321 19.8135 8.71264 19.8135H11.7514V21.8393H8.71264C8.15321 21.8393 7.69971 21.3858 7.69971 20.8264Z" fill="#00E45E"/>
<path d="M7.69971 25.4045C7.69971 24.8451 8.15321 24.3916 8.71264 24.3916H11.7514V26.4175H8.71264C8.15321 26.4175 7.69971 25.964 7.69971 25.4045Z" fill="#00E45E"/>
<path d="M7.69971 29.9866C7.69971 29.4271 8.15321 28.9736 8.71264 28.9736H11.7514V30.9995H8.71264C8.15321 30.9995 7.69971 30.546 7.69971 29.9866Z" fill="#00E45E"/>
<path d="M7.69971 34.5647C7.69971 34.0053 8.15321 33.5518 8.71264 33.5518H11.7514V35.5776H8.71264C8.15321 35.5776 7.69971 35.1241 7.69971 34.5647Z" fill="#00E45E"/>
<path d="M7.69971 39.1418C7.69971 38.5824 8.15321 38.1289 8.71264 38.1289H11.7514V40.1548H8.71264C8.15321 40.1548 7.69971 39.7013 7.69971 39.1418Z" fill="#00E45E"/>
<path d="M7.69971 43.72C7.69971 43.1605 8.15321 42.707 8.71264 42.707H11.7514V44.7329H8.71264C8.15321 44.7329 7.69971 44.2794 7.69971 43.72Z" fill="#00E45E"/>
</svg>
