<svg width="109" height="95" viewBox="0 0 109 95" fill="none" xmlns="http://www.w3.org/2000/svg">
<rect x="74.8125" y="37.8477" width="28.6759" height="56.0508" stroke="#2372FE" stroke-width="0.5"/>
<rect x="77.4453" y="65.332" width="23.4128" height="25.9341" fill="#2372FE"/>
<rect x="83.9258" y="75.0586" width="6.84373" height="2.88157" transform="rotate(90 83.9258 75.0586)" fill="white"/>
<rect x="77.4453" y="52.0078" width="23.4128" height="10.0855" fill="#2372FE"/>
<rect x="85.7305" y="55.6094" width="6.84373" height="2.88157" fill="white"/>
<rect x="77.4453" y="38.6797" width="23.4128" height="10.0855" fill="#2372FE"/>
<rect x="85.7305" y="42.2773" width="6.84373" height="2.88157" fill="white"/>
<path d="M5.40234 37.1523V94.1485H15.1276V37.1523" stroke="#2372FE"/>
<rect x="107.918" y="31.2539" width="6.20393" height="107.419" transform="rotate(90 107.918 31.2539)" stroke="#2372FE"/>
<path d="M30.2578 86.5853V82.2227C30.2578 81.9465 30.4817 81.7227 30.7578 81.7227H58.5735C58.8497 81.7227 59.0735 81.9465 59.0735 82.2227V86.5853" stroke="#2372FE"/>
<circle cx="59.0754" cy="90.1887" r="3.46216" stroke="#2372FE"/>
<circle cx="44.6653" cy="90.1887" r="3.46216" stroke="#2372FE"/>
<circle cx="30.259" cy="90.1887" r="3.46216" stroke="#2372FE"/>
<path d="M47.9102 67.4922H51.1519V81.6204H47.9102V67.4922Z" fill="#2372FE"/>
<rect x="43.2266" y="67.4922" width="3.24177" height="19.0904" fill="#2372FE"/>
<path d="M38.543 67.4922H41.7847V81.6204H38.543V67.4922Z" fill="#2372FE"/>
<path d="M34.1797 22.6094H55.877C58.3622 22.6094 60.377 24.6241 60.377 27.1094V67.3545H29.6797V27.1094L29.6855 26.8779C29.806 24.5002 31.772 22.6094 34.1797 22.6094Z" fill="#EDF2FF" stroke="#2372FE"/>
<path d="M64.6367 52.5039H61.0137V67.3525H64.6367C65.4651 67.3525 66.1367 66.681 66.1367 65.8525V54.0039C66.1367 53.1755 65.4651 52.5039 64.6367 52.5039Z" stroke="#2372FE"/>
<path d="M25.4141 52.5039H29.0371V67.3525H25.4141C24.5856 67.3525 23.9141 66.681 23.9141 65.8525V54.0039C23.9141 53.1755 24.5856 52.5039 25.4141 52.5039Z" stroke="#2372FE"/>
<path d="M85.0045 25.3555V30.7584H72.7578V25.3555" stroke="#2372FE"/>
<path d="M61.9531 18.1484V20.6698H95.8116V18.1484H61.9531Z" fill="#2372FE"/>
<path d="M61.9531 2.5V25.5337H95.8116V2.5C95.8116 1.39543 94.9162 0.5 93.8116 0.5H63.9531C62.8486 0.5 61.9531 1.39543 61.9531 2.5Z" stroke="#2372FE"/>
</svg>
