<svg width="880" height="603" viewBox="0 0 880 603" fill="none" xmlns="http://www.w3.org/2000/svg">
<path d="M650.402 629.418C537.825 753.889 348.771 766.33 228.14 657.253C107.51 548.176 100.943 358.851 213.52 234.379C326.098 109.908 515.152 97.4664 635.782 206.543C756.413 315.621 762.979 504.947 650.402 629.418Z" stroke="white"/>
<path d="M674.138 650.88C561.561 775.351 372.507 787.792 251.877 678.715C131.246 569.638 124.68 380.313 237.257 255.841C349.834 131.37 538.888 118.928 659.519 228.005C780.149 337.083 786.716 526.409 674.138 650.88Z" stroke="white"/>
<path d="M197.279 250.957L197.365 250.758L197.233 250.587L191.854 243.643L200.131 246.948L200.336 247.029L200.513 246.898L207.719 241.531L204.183 249.651L204.096 249.851L204.229 250.023L209.609 256.967L201.33 253.662L201.126 253.58L200.949 253.711L193.742 259.078L197.279 250.957Z" fill="#A7F46A" stroke="white" stroke-width="0.76"/>
</svg>
