<svg width="30" height="49" viewBox="0 0 30 49" fill="none" xmlns="http://www.w3.org/2000/svg">
<path d="M0 4.87649C0 2.18328 2.18328 0 4.87649 0H24.3501C27.0433 0 29.2266 2.18328 29.2266 4.87649V33.418C29.2266 41.4887 22.684 48.0313 14.6133 48.0313C6.54259 48.0313 0 41.4887 0 33.418V4.87649Z" fill="#26B2A5"/>
<path d="M1.86816 14.0787C1.86816 7.21203 7.43469 1.64551 14.3013 1.64551H23.307C26.4194 1.64551 28.9424 4.16854 28.9424 7.28085V33.2355C28.9424 41.2209 22.469 47.6943 14.4836 47.6943C7.51629 47.6943 1.86816 42.0462 1.86816 35.0789V14.0787Z" fill="#27CCBC"/>
<path d="M4.87695 0.25H24.3496C26.9047 0.25 28.9766 2.32181 28.9766 4.87695V33.418C28.9766 41.3506 22.5459 47.7812 14.6133 47.7812C6.68066 47.7812 0.25 41.3506 0.25 33.418V4.87695C0.25 2.32181 2.32181 0.25 4.87695 0.25Z" stroke="#0F1114" stroke-width="0.5"/>
<circle cx="14.6106" cy="38.4609" r="4.73438" fill="#E1E6E9" stroke="#0F1114" stroke-width="0.5"/>
<rect x="4.2146" y="5.22949" width="20.7969" height="18.5879" fill="white" stroke="#0F1114" stroke-width="0.5"/>
<path d="M11.2715 7.04498C10.1387 6.09342 9.04363 6.78066 8.63771 7.24322C6.1172 5.34568 4.61622 8.14956 5.74904 9.8771C6.65529 11.2591 8.05242 12.4542 8.63771 12.8791C10.1104 11.7462 11.1582 10.4246 11.4981 9.8771C11.8945 9.32954 12.4043 7.99654 11.2715 7.04498Z" fill="#FF697F" stroke="#0F1114" stroke-width="0.5"/>
<path d="M4.21875 19.7666H5.37988L5.97461 19.002L6.6543 19.7666H7.24902L7.84375 20.5879L8.35352 19.7666H9.08984L10.4775 16.9629L11.1572 22.3721L12.3184 19.7666H13.9043C14.3197 19.3607 15.3939 18.7924 16.3682 19.7666H18.2373L18.7754 19.002L19.4268 19.7666H20.0498L20.6445 20.5879L21.2109 19.7666H21.7773L23.0801 17.2178L23.873 22.3721L24.7793 20.3613" stroke="#0F1114" stroke-width="0.3"/>
<rect x="13.7627" y="12.1709" width="8.83594" height="0.509766" fill="#0F1114"/>
<rect x="15.9719" y="8.14941" width="6.62695" height="0.509766" fill="#0F1114"/>
<rect x="27.0151" y="22.2627" width="0.679688" height="11.3281" rx="0.339844" fill="white"/>
<rect x="27.0151" y="18.3525" width="0.679688" height="2.15234" rx="0.339844" fill="white"/>
</svg>
