<svg width="24" height="24" viewBox="0 0 24 24" fill="none" xmlns="http://www.w3.org/2000/svg">
<g clip-path="url(#clip0_4205_214124)">
<path d="M20.1152 0.905367L15.2768 6.4278L13.894 5.21196L13.5659 4.9234L13.2773 5.25152L5.9121 13.588C5.84118 12.9852 5.55693 12.406 5.06695 11.9767C4.54157 11.5166 3.87613 11.3126 3.2271 11.3556C2.57788 11.3985 1.94545 11.6887 1.48537 12.214C0.565118 13.2646 0.672087 14.8752 1.72265 15.7955C2.67187 16.6269 4.07868 16.6204 5.02002 15.8365L5.8769 16.5894L2.96202 19.8985L1.27874 18.4264C-0.745976 20.7354 3.76124 24.8729 5.8814 22.4547L4.20702 20.9898L7.11768 17.6793L7.85156 18.3238C7.20234 19.36 7.3814 20.753 8.32912 21.5831C9.37968 22.5034 10.9904 22.3965 11.9106 21.3459C12.8308 20.2952 12.7239 18.6845 11.6733 17.7643C11.2122 17.3602 10.6422 17.154 10.0709 17.1387L17.3819 8.8609L17.6719 8.53137L17.3424 8.24281L15.9361 7.00648L20.7729 1.48245L20.1152 0.905273V0.905367ZM21 2.78323C21 6.00518 18.9097 7.37206 18.9097 9.28273C18.9097 10.4367 19.8462 11.3717 21 11.3717C22.1538 11.3717 23.0903 10.4367 23.0903 9.28277C23.0903 7.22027 21 6.12677 21 2.78332V2.78323ZM9.21824 11.1694L12.0117 13.6159L11.3423 14.3731L8.54882 11.9268L9.2182 11.1695L9.21824 11.1694ZM3.36327 12.2213C3.76124 12.2142 4.16423 12.3507 4.48968 12.6358C5.18418 13.2441 5.25327 14.2865 4.64502 14.981C4.03673 15.6755 2.99427 15.7446 2.29987 15.1363C1.60532 14.528 1.53627 13.4856 2.14452 12.7911C2.44874 12.4438 2.86063 12.2522 3.2842 12.2242C3.31063 12.2225 3.3367 12.2218 3.36327 12.2214V12.2213ZM8.04937 12.4923L8.86077 13.2042L8.76852 13.3082L6.45702 15.9318L5.64257 15.2169L8.04937 12.4923ZM10.0986 14.2882L10.8428 14.94L8.43309 17.6675L7.69621 17.0201L10.0986 14.2882H10.0986ZM9.96974 18.0089C10.3677 18.0016 10.7706 18.1369 11.0961 18.4219C11.2611 18.5654 11.3961 18.74 11.4933 18.9359C11.5905 19.1317 11.6479 19.3448 11.6624 19.563C11.6768 19.7811 11.6479 19.9999 11.5774 20.2069C11.5069 20.4138 11.3961 20.6047 11.2514 20.7687C10.6432 21.4632 9.60074 21.5322 8.90629 20.9239C8.61742 20.6727 8.42451 20.3292 8.36041 19.9519C8.29632 19.5745 8.36498 19.1865 8.55473 18.8541C8.55496 18.8536 8.55449 18.8529 8.55473 18.8525L8.80082 18.5757L9.01616 18.3326C9.27083 18.1439 9.57441 18.0326 9.89067 18.0118C9.91715 18.0101 9.94316 18.0094 9.96979 18.0088L9.96974 18.0089Z" fill="white"/>
</g>
<defs>
<clipPath id="clip0_4205_214124">
<rect width="24" height="24" fill="white"/>
</clipPath>
</defs>
</svg>
