<svg width="19" height="59" viewBox="0 0 19 59" fill="none" xmlns="http://www.w3.org/2000/svg">
<path d="M2.87931 4.44616V47.0911C-0.993502 50.5414 0.717966 54.6313 2.0578 56.245C6.04797 60.329 10.1359 57.9467 11.6811 56.245C14.9437 52.114 12.4342 48.4211 10.7716 47.0911V4.44616C10.7716 2.26676 9.00487 0.5 6.82547 0.5C4.64606 0.5 2.87931 2.26676 2.87931 4.44616Z" stroke="#0F1114"/>
<rect x="5.34375" y="3.17188" width="3.0513" height="47.0018" fill="#CACACC"/>
<rect x="5.34375" y="26.5234" width="3.0513" height="23.6476" fill="#EF1D1E"/>
<circle cx="6.86856" cy="52.224" r="3.63809" fill="#EF1D1E"/>
<rect x="13.2051" y="3.82031" width="5.10507" height="0.938863" rx="0.469431" fill="#0F1114"/>
<rect x="13.2051" y="6.28516" width="3.52074" height="0.938863" rx="0.469431" fill="#0F1114"/>
<rect x="13.2051" y="8.75" width="5.10507" height="0.938863" rx="0.469431" fill="#0F1114"/>
<rect x="13.2051" y="11.2148" width="3.52074" height="0.938863" rx="0.469431" fill="#0F1114"/>
<rect x="13.2051" y="13.6797" width="5.10507" height="0.938863" rx="0.469431" fill="#0F1114"/>
<rect x="13.2051" y="16.1406" width="3.52074" height="0.938863" rx="0.469431" fill="#0F1114"/>
<rect x="13.2051" y="18.6055" width="5.10507" height="0.938863" rx="0.469431" fill="#0F1114"/>
<rect x="13.2051" y="21.0742" width="3.52074" height="0.938863" rx="0.469431" fill="#0F1114"/>
<rect x="13.2051" y="23.5391" width="5.10507" height="0.938863" rx="0.469431" fill="#0F1114"/>
<rect x="13.2051" y="26.0039" width="3.52074" height="0.938863" rx="0.469431" fill="#0F1114"/>
<rect x="13.2051" y="28.4648" width="5.10507" height="0.938863" rx="0.469431" fill="#0F1114"/>
<rect x="13.2051" y="30.9297" width="3.52074" height="0.938863" rx="0.469431" fill="#0F1114"/>
<rect x="13.2051" y="33.3945" width="5.10507" height="0.938863" rx="0.469431" fill="#0F1114"/>
<rect x="13.2051" y="35.8594" width="3.52074" height="0.938863" rx="0.469431" fill="#0F1114"/>
<rect x="13.2051" y="38.3242" width="5.10507" height="0.938863" rx="0.469431" fill="#0F1114"/>
<rect x="13.2051" y="40.7891" width="3.52074" height="0.938863" rx="0.469431" fill="#0F1114"/>
</svg>
