<svg width="20" height="20" viewBox="0 0 20 20" fill="none" xmlns="http://www.w3.org/2000/svg">
<path d="M10 12.5C5.82505 12.5 2.42505 15.3 2.42505 18.75C2.42505 18.9833 2.60838 19.1667 2.84172 19.1667H17.1584C17.3917 19.1667 17.575 18.9833 17.575 18.75C17.575 15.3 14.175 12.5 10 12.5Z" fill="#2371FF"/>
<path d="M13.0916 3.05008C12.3416 2.20008 11.2249 1.66675 9.99992 1.66675C8.83325 1.66675 7.76659 2.14175 7.00825 2.92508C6.28325 3.67508 5.83325 4.70841 5.83325 5.83341C5.83325 6.61675 6.04992 7.35008 6.44159 7.97508C6.64992 8.33341 6.91659 8.65841 7.23325 8.92508C7.95825 9.59175 8.92492 10.0001 9.99992 10.0001C11.5249 10.0001 12.8416 9.18341 13.5666 7.97508C13.7833 7.61675 13.9499 7.21675 14.0416 6.80008C14.1249 6.49175 14.1666 6.16675 14.1666 5.83341C14.1666 4.76675 13.7583 3.79175 13.0916 3.05008ZM11.5583 6.60008H10.7833V7.40841C10.7833 7.84175 10.4333 8.19175 9.99992 8.19175C9.56659 8.19175 9.21659 7.84175 9.21659 7.40841V6.60008H8.44159C8.00825 6.60008 7.65825 6.25008 7.65825 5.81675C7.65825 5.38341 8.00825 5.03341 8.44159 5.03341H9.21659V4.29175C9.21659 3.85841 9.56659 3.50841 9.99992 3.50841C10.4333 3.50841 10.7833 3.85841 10.7833 4.29175V5.03341H11.5583C11.9916 5.03341 12.3416 5.38341 12.3416 5.81675C12.3416 6.25008 11.9916 6.60008 11.5583 6.60008Z" fill="#2371FF"/>
</svg>
