<svg width="52" height="52" viewBox="0 0 52 52" fill="none" xmlns="http://www.w3.org/2000/svg">
<path d="M40.0605 51.0213H37.232H35.5427H11.5C5.42487 51.0213 0.5 46.0964 0.5 40.0213V10.5C0.5 4.97715 4.97715 0.5 10.5 0.5H41.0605C46.5834 0.5 51.0605 4.97715 51.0605 10.5V40.0213C51.0605 46.0964 46.1357 51.0213 40.0605 51.0213Z" fill="#4599FC" stroke="#0F1114"/>
<path d="M44.657 29.4143L39.8248 44.5392C39.4844 45.7439 37.9077 47.8156 34.3249 46.4641C32.1322 45.6371 31.7111 43.5026 31.9485 41.4543C32.2212 39.1009 33.0393 36.8069 33.0506 34.4378C33.0559 33.3121 33.0215 32.3082 32.9637 31.4324C32.792 28.8288 32.1333 25.9169 33.7586 23.8757C35.439 21.7651 38.2268 21.4117 39.8248 21.5964C44.8534 22.9478 45.1415 27.3714 44.657 29.4143Z" fill="#EBF7FF" stroke="#0F1114"/>
<path d="M11.9288 21.7894C6.30306 22.5751 6.59901 28.2977 7.4502 31.0608L7.96096 32.6716L11.8895 44.7715C12.5574 45.7929 14.6317 47.4508 17.5859 46.2251C20.5402 44.9994 19.7074 41.1834 18.9216 39.4287C18.2987 36.5286 18.46 33.1819 18.7835 30.6933C19.0246 28.8379 19.3819 26.8994 18.6159 25.1923C17.7073 23.1674 15.7365 21.2575 11.9288 21.7894Z" fill="#EBF7FF" stroke="#0F1114"/>
<path d="M35.4736 17.1669L36.9589 14.6419L37.7839 12.9133C38.1637 12.2193 39.0882 10.5483 39.7482 9.4169C40.4082 8.28546 39.7089 7.55737 39.2768 7.33476C29.9111 2.24335 18.9268 4.55858 14.6054 6.35262C11.3682 7.26405 11.3709 8.77523 11.7768 9.4169L16.4678 17.4382C16.7266 17.8806 17.2771 18.0533 17.7523 17.8612C20.5465 16.7314 23.3435 16.2843 25.8804 16.2401C29.335 16.18 32.3073 16.8668 34.1339 17.594C34.6265 17.7901 35.2048 17.6239 35.4736 17.1669Z" fill="#EBF7FF"/>
<path d="M36.9584 14.6429L35.4731 17.1678C35.2043 17.6249 34.626 17.7911 34.1334 17.595C32.3068 16.8678 29.3345 16.1809 25.8799 16.2411M37.7834 12.9143C38.1632 12.2203 39.0877 10.5493 39.7477 9.41787C40.4077 8.28643 39.7084 7.55835 39.2763 7.33574C29.9106 2.24433 18.9263 4.55956 14.6049 6.3536C11.3677 7.26502 11.3704 8.77621 11.7763 9.41787L16.4673 17.4392C16.7261 17.8816 17.2766 18.0543 17.7518 17.8622C20.546 16.7324 23.343 16.2853 25.8799 16.2411M25.8799 16.2411V7.68933" stroke="#0F1114"/>
</svg>
